<svg xmlns="http://www.w3.org/2000/svg" xmlns:xlink="http://www.w3.org/1999/xlink" viewBox="0 0 512 235.36"><defs><style>.cls-1{isolation:isolate;}.cls-2{fill:#32b44a;}.cls-3,.cls-5{opacity:0.5;mix-blend-mode:multiply;}.cls-3{fill:url(#linear-gradient);}.cls-4{fill:url(#linear-gradient-2);}.cls-5{fill:url(#linear-gradient-3);}.cls-6{fill:url(#linear-gradient-4);}</style><linearGradient id="linear-gradient" x1="377.33" y1="117.68" x2="276.08" y2="117.68" gradientUnits="userSpaceOnUse"><stop offset="0" stop-color="#fff"/><stop offset="0.09" stop-color="#f8f8f8"/><stop offset="0.22" stop-color="#e4e4e4"/><stop offset="0.37" stop-color="#c4c4c4"/><stop offset="0.54" stop-color="#979797"/><stop offset="0.73" stop-color="#5e5e5e"/><stop offset="0.94" stop-color="#191919"/><stop offset="1" stop-color="#010101"/></linearGradient><linearGradient id="linear-gradient-2" x1="276.65" y1="147.89" x2="394.33" y2="147.89" gradientUnits="userSpaceOnUse"><stop offset="0" stop-color="#dbe120"/><stop offset="1" stop-color="#94c93d"/></linearGradient><linearGradient id="linear-gradient-3" x1="119.96" y1="142.4" x2="207.86" y2="92.95" xlink:href="#linear-gradient"/><linearGradient id="linear-gradient-4" x1="190.86" y1="65.03" x2="130.77" y2="95.87" xlink:href="#linear-gradient-2"/></defs><title>logo</title><g class="cls-1"><g id="Layer_1" data-name="Layer 1"><path class="cls-2" d="M461.56,134.5H394.33a16.47,16.47,0,0,1-6.53-1.31,17.15,17.15,0,0,1-7.44-6.14,16.38,16.38,0,0,1-2.84-9.36,16.52,16.52,0,0,1,1.3-6.54,17,17,0,0,1,6.15-7.44,16.52,16.52,0,0,1,9.36-2.84h67.23A50.43,50.43,0,1,0,461.56,0H394.33a117.67,117.67,0,1,0,0,235.34h67.23a50.43,50.43,0,1,0,0-100.85Z" transform="translate(0)"/><path class="cls-3" d="M461.56,134.5H394.33a16.47,16.47,0,0,1-6.53-1.31,17.15,17.15,0,0,1-7.44-6.14,16.38,16.38,0,0,1-2.84-9.36,16.52,16.52,0,0,1,1.3-6.54,17,17,0,0,1,6.15-7.44,16.52,16.52,0,0,1,9.36-2.84h67.23A50.43,50.43,0,1,0,461.56,0H394.33a117.67,117.67,0,1,0,0,235.34h67.23a50.43,50.43,0,1,0,0-100.85Z" transform="translate(0)"/><path class="cls-4" d="M461.56,134.5H336.07a50.43,50.43,0,0,1-44.54-74.08h0a117.73,117.73,0,0,0-5.61,103.08,117.54,117.54,0,0,0,108.41,71.85h67.23a50.43,50.43,0,1,0,0-100.85Z" transform="translate(0)"/><path class="cls-2" d="M226.46,228.88a50.44,50.44,0,0,1-68.68-19.23l-31.7-56.35L94.39,209.65,6.48,160.2,82.13,25.71a50.35,50.35,0,0,1,87.85,0H170L245.69,160.2A50.42,50.42,0,0,1,226.46,228.88Z" transform="translate(0)"/><path class="cls-5" d="M226.46,228.88a50.44,50.44,0,0,1-68.68-19.23l-31.7-56.35L94.39,209.65,6.48,160.2,82.13,25.71a50.35,50.35,0,0,1,87.85,0H170L245.69,160.2A50.42,50.42,0,0,1,226.46,228.88Z" transform="translate(0)"/><path class="cls-6" d="M139.45,129.56,126.08,153.3h0L94.39,209.65A50.43,50.43,0,1,1,6.48,160.2L82.13,25.71a50.35,50.35,0,0,1,87.85,0H170l58.4,103.82C208.9,94.84,159,94.85,139.45,129.56Z" transform="translate(0)"/></g></g></svg>