<svg id="Layer_1" data-name="Layer 1" xmlns="http://www.w3.org/2000/svg" xmlns:xlink="http://www.w3.org/1999/xlink" viewBox="0 0 450.55 501.52"><defs><style>.cls-1{fill:none;}.cls-2{fill:#704e4b;}.cls-3{fill:#fff;}.cls-4{fill:#f17e4d;}.cls-5{fill:#f7ce41;}.cls-6{clip-path:url(#clip-path);}.cls-7{fill:#e7975c;}.cls-8{fill:#682323;}</style><clipPath id="clip-path"><path class="cls-1" d="M395.85,314.28v-127a60.54,60.54,0,0,0-30.27-52.43l-110-63.53a60.53,60.53,0,0,0-60.55,0L85,134.8A60.54,60.54,0,0,0,54.7,187.23v127A60.54,60.54,0,0,0,85,366.72l110,63.53a60.58,60.58,0,0,0,60.55,0l110-63.53A60.54,60.54,0,0,0,395.85,314.28Z"/></clipPath></defs><title>sahara</title><path class="cls-2" d="M450.55,345.86V155.65a60.54,60.54,0,0,0-30.27-52.43L255.55,8.11a60.58,60.58,0,0,0-60.55,0L30.28,103.22A60.53,60.53,0,0,0,0,155.65V345.86A60.55,60.55,0,0,0,30.28,398.3L195,493.4a60.53,60.53,0,0,0,60.55,0l164.73-95.1A60.57,60.57,0,0,0,450.55,345.86Z"/><path class="cls-3" d="M423.2,330.07V171.44A60.54,60.54,0,0,0,392.93,119L255.55,39.69a60.58,60.58,0,0,0-60.55,0L57.62,119a60.54,60.54,0,0,0-30.27,52.43V330.07a60.55,60.55,0,0,0,30.27,52.44L195,461.83a60.58,60.58,0,0,0,60.55,0l137.38-79.32A60.55,60.55,0,0,0,423.2,330.07Z"/><path class="cls-4" d="M395.85,314.28v-127a60.54,60.54,0,0,0-30.27-52.43l-110-63.53a60.53,60.53,0,0,0-60.55,0L85,134.8A60.54,60.54,0,0,0,54.7,187.23v127A60.54,60.54,0,0,0,85,366.72l110,63.53a60.58,60.58,0,0,0,60.55,0l110-63.53A60.54,60.54,0,0,0,395.85,314.28Z"/><circle class="cls-5" cx="283.49" cy="151.35" r="25.56"/><g class="cls-6"><polygon class="cls-7" points="313.87 216.62 -3.23 443.45 630.98 443.45 313.87 216.62"/><path class="cls-8" d="M325.18,228.63c12,12.84-2.78,20.28-6.86,24.37-4.27,4.29-10.16,8.23-10.42,14.28-.16,3.91,2.22,7.47,4.92,10.31,10.05,10.58,25,14.9,39.49,16.84s29.28,1.95,43.32,5.92c6.51,1.84,12.76,4.51,19.28,6.3a80.91,80.91,0,0,0,28.18,2.4L313.87,216.62Z"/></g><g class="cls-6"><polygon class="cls-7" points="197.79 198.03 -119.31 424.86 514.9 424.86 197.79 198.03"/><path class="cls-8" d="M199.7,199.4c7.1,8.24,14.1,17.22,15.28,27.94,1.49,13.5-6.76,26.31-16.8,35.44s-22.12,15.87-32,25.18-17.68,22.53-15.46,35.92c1.68,10.08,8.85,18.58,17.44,24.1s18.55,8.47,28.41,11.13c25.29,6.81,54,14.33,66.56,37.29,4.86,8.85,6.66,19.06,10.25,28.46H514.9Z"/></g></svg>